<svg viewBox="0 288 920 296" xmlns="http://www.w3.org/2000/svg"><path d="m451.33 303.4c2.48-3.68 8.77-3.65 11.14.12 1.43 2.53 2.05 5.66 4.46 7.53 5.04 4.22 11.09 6.92 16.67 10.32 7.26 4.18 14.19 8.99 20.39 14.65 12.97 11.37 25.73 23.99 32.53 40.16 11.8-1.19 24.32-1.46 35.15 4.12 10 5.55 18.77 13.46 25.09 23 9.4 15.17 12.74 33.63 10.78 51.25 11.53-2.76 24.03-2.54 35.12 1.9 10.1 3.46 18.62 10.15 28.3 14.5 13.89 6.36 28.27 13.69 43.97 13.14 17.73-1.52 35.79-6.37 50.01-17.51-3.12-6.28-5.81-13.72-3.21-20.64 2.17-6.4 9.69-11.62 16.44-9.08 4.32 2.1 8.09 6.17 8.73 11.07 1.08 5.73-.06 11.67-2.69 16.83 9.21 5.65 20.26 6.21 30.78 6.25 15.35-.32 30.68-1.56 46.05-1.25 3.1.07 6.17.71 9.23 1.25 2.7-1.31 6.24-2.15 8.76.04 3.85 2.73 7.26 7.97 4.62 12.64-2.19 3.99-7.37 3.8-11.18 2.78-4.73-1.4-9.49-2.99-14.47-2.97-20-.14-40.03 2.51-60 .53-8.11-.75-15.63-4.14-22.63-8.13-15.99 14.05-37.45 20.24-58.31 22-18.65 1.52-35.99-6.73-52.44-14.36-11.28-5.11-21.16-13.46-33.55-15.93-8.79-2.1-17.82-.2-26.42 1.91-2.83 9.78-8.09 18.74-14.78 26.37-6.02 7.09-13.25 13.63-22.13 16.8-5.63 1.86-13.24 1.86-17-3.48-5.38-6.64-3.12-16.48 1.71-22.79 10.05-13.27 25.36-21.06 40.32-27.5 3.14-14.8 1.01-30.59-5.62-44.15-2.9-6.08-7.56-11.08-12.58-15.46-4.5-3.78-9.47-7.32-15.29-8.67-6.06-1.73-12.4-1.35-18.59-.88 3.54 16.15 2.33 33.7-5.16 48.6-6.11 12.47-14.47 24.43-26.53 31.75-8.52 5.64-19.42 8.77-29.41 5.43-9.48-3.77-17.32-12.06-19.81-22.04-3.26-14.4.72-30.19 10.41-41.31 13.56-16.05 32.17-27.42 52.16-33.57-7.65-14.35-19.76-25.6-32.13-35.87-10.25-8.52-22.94-13.33-33.36-21.59-9.17 7.52-20.43 11.82-29.85 18.98-13.86 10.72-26.97 23.11-35.66 38.49 19.92 5.96 38.37 17.29 51.9 33.15 8.16 9.32 12.66 21.83 11.76 34.24.01 10.33-5.68 20.04-14.03 25.92-6.11 4.87-14.4 5.65-21.87 4.41-13.44-3.38-24.67-12.71-32.5-23.9-6.93-10.03-12.64-21.24-14.52-33.4-1.4-9.71-1.07-19.67.99-29.26-5.38-.45-10.84-.86-16.16.35-8.38 1.31-15.34 6.72-21.27 12.46-9.64 9.16-14.14 22.44-15.63 35.37-.99 6.97-.2 14 .94 20.9 13.17 5.64 26.41 12.3 36.42 22.8 4.62 5.01 9.16 11.2 8.69 18.38.26 5.37-2.73 11.18-8.03 12.96-5.83 1.85-12.17.29-17.31-2.72-8.59-4.71-15.34-12.05-21.13-19.81-4.03-5.72-7.53-11.88-9.71-18.55-.48-.99-.63-2.53-2.01-2.65-8.97-2.47-18.61-3.75-27.69-1.06-11.21 2.99-20.34 10.5-30.79 15.2-16.43 7.68-33.77 15.92-52.42 14.49-21.01-1.67-42.57-7.99-58.67-22.12-7.07 4.43-15.01 7.68-23.39 8.34-19.96 1.82-39.96-.86-59.94-.6-6.6-.13-12.51 3.73-19.09 3.51-3.69.13-6.99-3.39-6.69-7.05-.04-3.89 3.08-6.75 5.77-9.12 2.47-1.98 5.87-1.13 8.45.15 3.16-.5 6.3-1.21 9.5-1.26 15.38-.3 30.73.94 46.1 1.25 10.44-.07 21.48-.53 30.58-6.3-3.07-5.88-4.14-12.98-2.08-19.35 1.7-3.9 5-7.15 8.93-8.77 4.88-1.5 9.92 1.29 13.17 4.8 5.66 7.29 3.77 17.76-.88 25.07 13.43 10.64 30.4 15.48 47.18 17.4 10.45 1.18 20.82-1.75 30.44-5.56 9.62-4.11 19.25-8.29 28.28-13.62 10.38-6.38 22.02-11.63 34.4-11.87 5.78-.3 11.56.47 17.21 1.63-2-17.68 1.51-36.15 10.9-51.36 6.2-9.33 14.79-16.97 24.49-22.53 10.95-5.79 23.75-5.63 35.74-4.35 3.3-8.59 8.88-16.09 14.89-22.97 7.74-8.57 16.15-16.55 25.31-23.6 7.73-5.9 16.49-10.2 24.74-15.29 2.18-1.43 4.53-2.78 6.07-4.94 1.32-1.83 1.79-4.09 2.94-6m-64.34 88.69c-3.17 12.99-2.34 27.15 3.58 39.25 5.22 10.98 12.41 21.73 23.27 27.8 4.81 2.73 10.73 5.27 16.22 2.96 5.42-2.64 9.88-7.83 10.71-13.91 1.81-10.33-2.33-21.07-9.31-28.67-11.84-13.07-27.54-22.6-44.47-27.43m108.55 15.52c-7.35 5.54-14.41 11.89-18.98 20-3.74 7.65-5.59 16.96-2.23 25.08 2.97 6.13 9.6 11.75 16.83 10.03 6.66-1.55 12.47-5.58 17.59-9.97 5.59-5.63 10.01-12.37 13.62-19.4 6.52-12.64 7.95-27.61 4.44-41.34-11.19 3.37-21.94 8.52-31.27 15.6m65.74 92.26c11.24-3.21 18.65-13.23 24.78-22.55-9.46 5.8-20.69 11.49-24.78 22.55m-233.36-22.34c6.06 9.3 13.55 19.15 24.67 22.43-4.17-10.9-15.1-16.89-24.67-22.43z"/></svg>
